<svg clip-rule="evenodd" fill-rule="evenodd" height="267" stroke-linejoin="round" stroke-miterlimit="2" width="267" xmlns="http://www.w3.org/2000/svg" xmlns:serif="http://www.serif.com/"><g id="Exp-1.-O"><g><path d="m145.091 229.033c-3.846.517-7.771.784-11.758.784-.048 0-.096 0-.144 0-2.3-.004-4.17 1.86-4.173 4.16-.004 2.299 1.86 4.169 4.16 4.173h.157c4.364 0 8.659-.292 12.868-.858 2.279-.307 3.881-2.406 3.574-4.685-.306-2.279-2.405-3.881-4.684-3.574zm-31.618-1.483c-3.905-.908-7.71-2.077-11.396-3.489-2.147-.823-4.559.253-5.381 2.401-.823 2.147.253 4.558 2.4 5.381 4.04 1.547 8.21 2.829 12.491 3.824 2.24.521 4.481-.875 5.001-3.115.521-2.24-.875-4.481-3.115-5.002zm61.677-8.367c-3.475 1.896-7.091 3.563-10.83 4.981-2.15.815-3.234 3.223-2.418 5.373.815 2.15 3.223 3.234 5.373 2.418 4.097-1.553 8.06-3.38 11.866-5.457 2.019-1.101 2.763-3.635 1.662-5.653-1.102-2.019-3.635-2.764-5.653-1.662zm-90.672-4.283c-3.304-2.23-6.448-4.679-9.41-7.326-1.715-1.533-4.351-1.385-5.883.33-1.533 1.715-1.385 4.351.33 5.883 3.243 2.899 6.685 5.58 10.301 8.02 1.906 1.287 4.498.784 5.785-1.123 1.286-1.906.783-4.498-1.123-5.784zm115.269-15.638c-2.593 3.02-5.388 5.861-8.363 8.503-1.72 1.527-1.877 4.163-.35 5.883 1.527 1.719 4.162 1.876 5.882.349 3.257-2.891 6.316-6.002 9.154-9.307 1.498-1.745 1.297-4.378-.448-5.876-1.745-1.497-4.377-1.297-5.875.448zm-137.897-6.498c-2.29-3.238-4.367-6.638-6.208-10.179-1.06-2.041-3.578-2.836-5.618-1.775-2.041 1.06-2.836 3.578-1.775 5.618 2.016 3.879 4.29 7.603 6.798 11.149 1.328 1.877 3.931 2.323 5.808.995s2.323-3.931.995-5.808zm153.838-20.835c-1.355 3.763-2.961 7.407-4.797 10.911-1.068 2.037-.28 4.557 1.756 5.625 2.037 1.067 4.558.28 5.625-1.757 2.013-3.84 3.772-7.833 5.257-11.956.779-2.164-.345-4.553-2.509-5.332-2.163-.779-4.553.345-5.332 2.509zm-167.129-7.873c-.977-3.814-1.702-7.728-2.158-11.723-.261-2.285-2.327-3.928-4.612-3.668-2.285.261-3.928 2.328-3.667 4.613.499 4.377 1.294 8.666 2.364 12.845.57 2.227 2.842 3.573 5.07 3.003 2.228-.571 3.573-2.843 3.003-5.07zm172.26-23.351c.009.536.014 1.074.014 1.612 0 3.485-.204 6.923-.601 10.302-.268 2.284 1.369 4.356 3.653 4.624 2.284.269 4.356-1.368 4.624-3.652.434-3.698.658-7.46.658-11.274 0-.589-.006-1.176-.016-1.762-.042-2.3-1.942-4.133-4.242-4.091-2.299.042-4.132 1.942-4.09 4.241zm-6.277-31.008c1.474 3.662 2.708 7.447 3.681 11.335.558 2.231 2.822 3.589 5.053 3.03 2.231-.558 3.589-2.823 3.031-5.053-1.067-4.262-2.419-8.41-4.035-12.424-.859-2.134-3.288-3.168-5.421-2.31-2.133.859-3.168 3.288-2.309 5.422zm-16.938-26.731c2.697 2.919 5.198 6.021 7.482 9.287 1.318 1.884 3.918 2.344 5.802 1.026 1.885-1.318 2.345-3.918 1.026-5.803-2.5-3.574-5.238-6.97-8.19-10.166-1.561-1.689-4.199-1.793-5.888-.232s-1.793 4.199-.232 5.888z"/><path d="m46.409 152.398c-.38-3.308-.576-6.672-.576-10.081 0-48.293 39.208-87.5 87.5-87.5 2.3 0 4.167-1.867 4.167-4.167 0-2.299-1.867-4.166-4.167-4.166-52.892 0-95.833 42.941-95.833 95.833 0 3.731.214 7.412.63 11.032.262 2.285 2.33 3.927 4.615 3.664 2.284-.262 3.926-2.33 3.664-4.615z"/><path d="m122.1 35.482 13.756 15.168s-13.756 15.168-13.756 15.168c-1.545 1.704-1.417 4.341.287 5.886 1.703 1.545 4.34 1.416 5.885-.287l16.295-17.968c1.44-1.588 1.44-4.01 0-5.598l-16.295-17.967c-1.545-1.704-4.182-1.832-5.885-.287-1.704 1.544-1.832 4.182-.287 5.885z"/><path d="m167.645 96.587c0-2.301-1.866-4.167-4.167-4.167h-60.29c-2.301 0-4.166 1.866-4.166 4.167v13.041c0 12.071 6.565 23.188 17.137 29.015 8.099 4.464 16.46 9.073 16.46 9.073 1.3.717 2.884.687 4.157-.078 0 0 7.465-4.484 14.8-8.891 9.97-5.99 16.069-16.769 16.069-28.4 0-7.074 0-13.76 0-13.76zm-8.333 4.167v9.593c0 8.705-4.565 16.773-12.027 21.256-.001.001-12.744 7.657-12.744 7.657s-14.359-7.915-14.359-7.915c-7.913-4.362-12.827-12.682-12.827-21.717v-8.874z"/><path d="m172.84 92.42h-79.013c-2.3 0-4.167 1.868-4.167 4.167 0 2.3 1.867 4.167 4.167 4.167h79.013c2.299 0 4.166-1.867 4.166-4.167 0-2.299-1.867-4.167-4.166-4.167z"/><path d="m163.478 195.713c2.301 0 4.167-1.865 4.167-4.167 0 0 0-6.685 0-13.76 0-11.63-6.099-22.409-16.069-28.399-7.335-4.407-14.8-8.892-14.8-8.892-1.273-.765-2.857-.794-4.157-.077 0 0-8.361 4.608-16.46 9.073-10.572 5.827-17.137 16.943-17.137 29.015v13.04c0 2.302 1.865 4.167 4.166 4.167zm-4.166-8.333h-51.957v-8.874c0-9.036 4.914-17.356 12.827-21.717 0 0 14.359-7.915 14.359-7.915s12.744 7.656 12.744 7.656c7.462 4.483 12.027 12.551 12.027 21.256z"/><path d="m172.84 187.38h-79.013c-2.3 0-4.167 1.867-4.167 4.166 0 2.3 1.867 4.167 4.167 4.167h79.013c2.299 0 4.166-1.867 4.166-4.167 0-2.299-1.867-4.166-4.166-4.166z"/></g></g></svg>