<svg height="512" viewBox="0 0 32 32" width="512" xmlns="http://www.w3.org/2000/svg"><g id="Layer_2" data-name="Layer 2"><path d="m17.5 21.5h-3a.5.5 0 0 0 -.5.5v.5h-1.64a1 1 0 1 0 0 1h5.14a.5.5 0 0 0 .5-.5v-1a.5.5 0 0 0 -.5-.5zm0 0h-3a.5.5 0 0 0 -.5.5v.5h-1.64a1 1 0 1 0 0 1h5.14a.5.5 0 0 0 .5-.5v-1a.5.5 0 0 0 -.5-.5zm0 0h-3a.5.5 0 0 0 -.5.5v.5h-1.64a1 1 0 1 0 0 1h5.14a.5.5 0 0 0 .5-.5v-1a.5.5 0 0 0 -.5-.5zm10 6h-2a.5.5 0 0 0 -.5.5v.5h-1.23l-1.45-2.17a5 5 0 0 0 -1.32-9.84h-.43-.07a1.35 1.35 0 0 1 -1.21-2l1.71-3.33a1 1 0 0 0 1.36.37l3.47-2a1 1 0 0 0 .5-.87 1 1 0 0 0 -.14-.5.93.93 0 0 0 -.14-.16l.95-1.78a.51.51 0 0 0 0-.48.52.52 0 0 0 -.43-.24h-2.95l1.09-.5 1-.49a.51.51 0 0 0 .29-.29l1-2a.51.51 0 0 0 0-.48.52.52 0 0 0 -.43-.24h-1a.51.51 0 0 0 -.45.28l-1 2a.54.54 0 0 0 -.12.22v.19l-2.72 1.36h-.05a.48.48 0 0 0 -.13.16l-1.23 2.79h-.37a.51.51 0 0 0 -.44.26l-4.85 8.74h-1.07a1.51 1.51 0 0 1 -1.47-1.21l-.67-3.39a.5.5 0 0 0 -.49-.4h-.61l-.36-1.58a.49.49 0 0 0 -.49-.39h-1.05v-1h2.5a.5.5 0 0 0 .5-.53 2.5 2.5 0 0 0 -2.5-2.5h-4a.5.5 0 0 0 -.5.5v2a.5.5 0 0 0 .5.5h2.5v1h-1.51a.5.5 0 0 0 -.49.5.5.5 0 0 0 .5.5h3.15l.22 1h-.37a.52.52 0 0 0 -.38.17.55.55 0 0 0 -.12.39l1 7.57a3.47 3.47 0 0 0 .55 5.24l-1.36 2.63h-1.19v-.5a.5.5 0 0 0 -.5-.5h-2a.5.5 0 0 0 -.5.5v1a.5.5 0 0 0 .5.5h23a.5.5 0 0 0 .5-.5v-1a.5.5 0 0 0 -.5-.5zm-22.5-19v-1h3.5a1.5 1.5 0 0 1 1.41 1zm16.83-2h3.86l-.61 1.23a.8.8 0 0 0 -.26.09l-3.05 1.76.23-.36a.51.51 0 0 0 0-.48.52.52 0 0 0 -.43-.24h-.57zm-11.74 7 .6 3a2.52 2.52 0 0 0 2.45 2h1.36a.51.51 0 0 0 .44-.26l4.85-8.74h.9l-2.3 4.6a2.36 2.36 0 0 0 .11 2.29 2.63 2.63 0 0 0 .46.54l-.14.07-.55.31-.21.15a5 5 0 0 0 -.5.42.86.86 0 0 0 -.14.13 5.35 5.35 0 0 0 -.53.63l-.1.17a6.38 6.38 0 0 0 -.32.57.67.67 0 0 1 -.06.12h-4.91a4 4 0 0 0 -.77.09l-.22.07a3.13 3.13 0 0 0 -.51.19h-.14l-.79-6.4zm-1.09 9.5a2.5 2.5 0 0 1 2.5-2.5h9.5a1 1 0 0 1 1 1 1 1 0 0 1 -.69.94h-.09l-8.93 2.89a2.51 2.51 0 0 1 -1.62 0 2.12 2.12 0 0 1 -.29-.11 2.47 2.47 0 0 1 -1.38-2.22zm2.05 3.78-.86 1.72h-.88l1.09-2.18.2.05.2.05a3.27 3.27 0 0 0 .62.07h.08a.51.51 0 0 0 -.45.29zm.26 1.72.5-1h5.69a2.74 2.74 0 0 1 2 1zm9.48 0a4 4 0 0 0 -3.29-2h-6 .38.2a3.16 3.16 0 0 0 .55-.14l9-2.9.1-.05a2 2 0 0 0 1.27-1.91 2 2 0 0 0 -2-2h-3.46a1.76 1.76 0 0 1 .14-.23l.08-.13a4.12 4.12 0 0 1 .33-.4h.05q.16-.16.33-.3l.15-.11.27-.19.18-.11.28-.14.2-.08.31-.1.18-.06a4.54 4.54 0 0 1 .51-.09 3.15 3.15 0 0 1 .44 0 4 4 0 0 1 .45 8 .53.53 0 0 0 -.44.44.54.54 0 0 0 .08.28l1.49 2.22z"/></g></svg>