<?xml version="1.0"?>
<svg xmlns="http://www.w3.org/2000/svg" id="Layer_1" data-name="Layer 1" viewBox="0 0 64 64"><path d="M58.948,17.521A9.982,9.982,0,0,0,48.977,7.55H43.535a9.977,9.977,0,0,0-9.96,9.971v7.9a15.566,15.566,0,0,0-3.063,9.294,16.181,16.181,0,0,0,.217,2.462H17.817V30.653a4.445,4.445,0,0,0-8.748-1.121A4.436,4.436,0,0,0,2,33.12V49.528a4.46,4.46,0,0,0,4.454,4.455,4.408,4.408,0,0,0,2.615-.866A4.445,4.445,0,0,0,17.817,52V45.471H34.766a15.665,15.665,0,0,0,5.725,3.9V52a4.445,4.445,0,0,0,8.748,1.121,4.437,4.437,0,0,0,7.07-3.589V46.816a15.695,15.695,0,0,0,2.639-21.393ZM6.454,51.983A2.457,2.457,0,0,1,4,49.528V33.12a2.454,2.454,0,0,1,4.908,0V49.528A2.457,2.457,0,0,1,6.454,51.983ZM15.817,52a2.455,2.455,0,0,1-4.909,0V30.653a2.455,2.455,0,0,1,4.909,0V52Zm2-12.817H40.491v4.292H17.817Zm19.916,6.292h2.758v1.711A13.642,13.642,0,0,1,37.733,45.471ZM47.4,52a2.454,2.454,0,0,1-4.908,0V30.653a2.454,2.454,0,0,1,4.908,0V52Zm6.91-2.468a2.455,2.455,0,1,1-4.91,0V33.12a2.455,2.455,0,0,1,4.91,0ZM60,34.717a13.656,13.656,0,0,1-3.691,9.353V33.12a4.437,4.437,0,0,0-7.07-3.588,4.445,4.445,0,0,0-8.748,1.121v6.526H32.756a14.183,14.183,0,0,1-.244-2.462,13.6,13.6,0,0,1,2.856-8.351.994.994,0,0,0,.207-.609V17.521a7.975,7.975,0,0,1,7.96-7.971h5.442a7.98,7.98,0,0,1,7.971,7.971v8.236a1,1,0,0,0,.207.609A13.59,13.59,0,0,1,60,34.717Z"/><path d="M49.6,12.291H42.915a4.167,4.167,0,0,0-4.163,4.163v.451a3.823,3.823,0,0,0,3.819,3.82h7.373a3.823,3.823,0,0,0,3.82-3.82v-.451A4.167,4.167,0,0,0,49.6,12.291Zm2.162,4.614a1.823,1.823,0,0,1-1.82,1.82H42.571a1.822,1.822,0,0,1-1.819-1.82v-.451a2.166,2.166,0,0,1,2.163-2.163H49.6a2.165,2.165,0,0,1,2.162,2.163Z"/><path d="M35.885,28.183a10.97,10.97,0,0,0-1.776,7.63,1,1,0,0,0,.991.865,1.047,1.047,0,0,0,.136-.009,1,1,0,0,0,.856-1.127,8.952,8.952,0,0,1,1.451-6.24,1,1,0,1,0-1.658-1.119Z"/></svg>
