<svg id="Digestive_Health" viewBox="0 0 64 64" xmlns="http://www.w3.org/2000/svg" data-name="Digestive Health"><path d="m27 25c0 7.17 5.83 13 13 13s13-5.83 13-13c0-3.75-1.63-7.33-4.46-9.8-.42-.36-1.05-.32-1.41.1s-.32 1.05.1 1.41c2.4 2.1 3.78 5.12 3.78 8.3 0 6.07-4.93 11-11 11s-11-4.93-11-11 4.93-11 11-11c1.38 0 2.72.25 3.98.75.51.2 1.09-.05 1.3-.57.2-.51-.05-1.09-.57-1.3-1.5-.59-3.09-.89-4.71-.89-7.17 0-13 5.83-13 13z"/><path d="m43.9 20.86-5.13 6.16-2.73-2.73c-.39-.39-1.02-.39-1.41 0s-.39 1.02 0 1.41l3.5 3.5c.19.19.44.29.71.29h.04c.28-.01.54-.14.72-.36l5.83-7c.35-.42.3-1.06-.13-1.41s-1.05-.3-1.41.13z"/><path d="m39.86 10s.06 0 .09 0c.51 0 .95-.39 1-.91.03-.36.05-.72.05-1.09v-5c0-.55-.45-1-1-1s-1 .45-1 1v5c0 .31-.02.61-.05.91-.05.55.35 1.04.9 1.09z"/><path d="m23 11h7c1.65 0 3-1.35 3-3v-5c0-.55-.45-1-1-1s-1 .45-1 1v5c0 .55-.45 1-1 1h-7c-.55 0-1 .45-1 1s.45 1 1 1z"/><path d="m18 31h6.8c.55 0 1-.45 1-1s-.45-1-1-1h-6.8c-4.96 0-9-4.04-9-9 0-2.4.94-4.66 2.64-6.36s3.96-2.64 6.36-2.64h1c.55 0 1-.45 1-1s-.45-1-1-1h-1c-2.94 0-5.7 1.14-7.78 3.22s-3.22 4.84-3.22 7.78c0 6.07 4.93 11 11 11z"/><path d="m23 53h-5c-4.96 0-9-4.04-9-9 0-2.4.94-4.66 2.64-6.36s3.96-2.64 6.36-2.64h8.76c.55 0 1-.45 1-1s-.45-1-1-1h-8.76c-2.94 0-5.7 1.14-7.78 3.22s-3.22 4.84-3.22 7.78c0 6.07 4.93 11 11 11h5c.55 0 1-.45 1-1s-.45-1-1-1z"/><path d="m30 53h-3c-.55 0-1 .45-1 1s.45 1 1 1h3c.55 0 1 .45 1 1v5c0 .55.45 1 1 1s1-.45 1-1v-5c0-1.65-1.35-3-3-3z"/><path d="m56.47 28.62c-.17-.53-.73-.82-1.26-.65s-.82.73-.65 1.26c.29.9.43 1.83.43 2.77 0 2.4-.94 4.66-2.64 6.36s-3.96 2.64-6.36 2.64h-28c-1.65 0-3 1.35-3 3s1.35 3 3 3h12c4.96 0 9 4.04 9 9v5c0 .55.45 1 1 1s1-.45 1-1v-5c0-6.07-4.93-11-11-11h-12c-.55 0-1-.45-1-1s.45-1 1-1h28c2.94 0 5.7-1.14 7.78-3.22s3.22-4.84 3.22-7.78c0-1.14-.18-2.28-.53-3.38z"/><path d="m18 19h7.61c.55 0 1-.45 1-1s-.45-1-1-1h-7.61c-1.65 0-3 1.35-3 3 0 .81.32 1.57.87 2.11.56.58 1.32.89 2.13.89h6.28c.55 0 1-.45 1-1s-.45-1-1-1h-6.28c-.27 0-.51-.1-.71-.31-.18-.18-.29-.43-.29-.69 0-.55.45-1 1-1z"/></svg>