<?xml version="1.0"?>
<svg xmlns="http://www.w3.org/2000/svg" id="Layer_3" data-name="Layer 3" viewBox="0 0 100 100"><path d="M43.87,41.37a4.95,4.95,0,1,0-1.74-9.6.44.44,0,0,1-.51-.11l-4.49-4.59a1.8,1.8,0,0,0-2.55,2.55l4.49,4.6a.25.25,0,0,1,.1.41,5,5,0,0,0,4.7,6.74ZM27.75,79.68H15.1a1.79,1.79,0,0,0,0,3.57H27.75a1.79,1.79,0,0,0,0-3.57Zm8,11.74H21.42a1.79,1.79,0,0,0,0,3.58H35.71a1.79,1.79,0,0,0,0-3.58Zm57.53,0h-5.3c-.41,0-.62-.4-.41-.61a6.42,6.42,0,0,0,.81-5.72L83.45,67a10.64,10.64,0,0,0-3.17-5.11L76.92,59a1.81,1.81,0,0,0-2.35,2.76l3.37,2.86a6.58,6.58,0,0,1,2,3.17L85,86a3.33,3.33,0,0,1-2.55,4.29,3.11,3.11,0,0,1-4.08-2.45L74.78,75.18A8.29,8.29,0,0,0,72,70.79L59.37,59.25a7,7,0,0,1-2-7.36l3.88-15.12A7.55,7.55,0,0,1,76,38.51c0,.3-.41.41-.51.2l-.2-.41a1.76,1.76,0,0,0-3.17,1.54l3.17,6.43c0,.1.2.21.3.21H88c4.38,0,4.49,6.74,0,6.74H74.88a5.89,5.89,0,0,1-5.51-3.37l-1.63-3.37A1.76,1.76,0,0,0,64.57,48l1.64,3.37a9.35,9.35,0,0,0,8.67,5.41H88c9.08,0,9.18-13.89,0-13.89H79.47a.48.48,0,0,1-.51-.51l.2-.82a10.52,10.52,0,0,0-2.34-10,.44.44,0,0,1,.2-.71,9.2,9.2,0,0,0,4.9-6c3.36-12.06-15-17.06-18.26-4.91a8.85,8.85,0,0,0,.91,7.16c.11.3.92,1,.21,1.32a10.76,10.76,0,0,0-5.41,4.09,2.38,2.38,0,0,1-.61.82l-9,8.78a6.91,6.91,0,0,0,3.37,11.75c.2,0,.31.21.31.41a10.47,10.47,0,0,0,1.93,5.82.44.44,0,0,1,0,.51l-4,7.56c-.11.1-.11.21-.21.21L38.46,72.42A7,7,0,0,0,34,81.21a6.82,6.82,0,0,0,8.67,4.49c4.8-1.53,9.8-3,14.59-4.49A10.11,10.11,0,0,0,62.74,77c1.12-2,2.35-4,3.47-6a.51.51,0,0,1,.71-.1l2.76,2.55a5.68,5.68,0,0,1,1.73,2.76l3.47,12.57a9.43,9.43,0,0,0,.81,2c.21.21,0,.61-.3.61H47.44a1.79,1.79,0,0,0,0,3.58h45.8a1.79,1.79,0,0,0,0-3.58ZM67,20.83c2-7.45,13.57-4.59,11.53,3.07A6,6,0,0,1,67,20.83ZM52.23,44.64,56,41.06c.1-.2.4,0,.4.21L54.07,50c0,.2-.31.31-.51.31a3.36,3.36,0,0,1-1.33-5.62Zm7.45,30.44a6.37,6.37,0,0,1-3.57,2.76L41.52,82.33c-1.22.62-4.18-.61-4.18-2.24a3.6,3.6,0,0,1,2.24-4.3L51.72,72c1.43-.51,1.94-.61,2.76-2l3.46-6.43c.11-.31.41-.31.62-.11l5,4.4a.65.65,0,0,1,.11.61c-1.33,2.25-2.66,4.39-4,6.64ZM18.87,61.29A34.89,34.89,0,0,1,8.57,36.46a35.58,35.58,0,0,1,10.3-25,1.81,1.81,0,0,0-2.55-2.56A39.62,39.62,0,0,0,5,36.46,38.86,38.86,0,0,0,16.32,63.84a1.8,1.8,0,0,0,2.55-2.55ZM12.45,36.46a31.87,31.87,0,0,0,21,29.63c2.14.82,3.37-2.55,1.12-3.37a27.47,27.47,0,0,1-8.67-5.11.5.5,0,0,1-.1-.61l1.12-1.13a1.8,1.8,0,0,0-2.55-2.55l-1,1.12c-.2.21-.51.11-.71,0a28.42,28.42,0,0,1-6.43-15.73.47.47,0,0,1,.41-.51h1.53a1.79,1.79,0,0,0,0-3.57H16.63a.47.47,0,0,1-.51-.41,28.28,28.28,0,0,1,6.53-15.84c.2-.1.51-.2.61,0l1.12,1.13A1.81,1.81,0,0,0,26.93,17l-1.12-1.12c-.2-.1-.1-.41,0-.61A28.13,28.13,0,0,1,41.62,8.68a.46.46,0,0,1,.41.51v1.63a1.79,1.79,0,0,0,3.57,0V9.09a.46.46,0,0,1,.51-.41,25.72,25.72,0,0,1,8.47,2A1.76,1.76,0,1,0,55.9,7.45,29.2,29.2,0,0,0,43.87,5c-17,0-31.42,14.51-31.42,31.46Zm32.74,0a1.35,1.35,0,0,1-1.32,1.33,1.37,1.37,0,0,1-1.43-1.33A1.4,1.4,0,0,1,43.87,35a1.38,1.38,0,0,1,1.32,1.43Z"/></svg>
