<svg id="Layer_1" enable-background="new 0 0 68 68" viewBox="0 0 68 68" xmlns="http://www.w3.org/2000/svg"><g><path d="m29.328 53.339c1.279 1.381 2.895 2.112 4.672 2.112.552 0 1-.448 1-1s-.448-1-1-1c-1.206 0-2.314-.508-3.205-1.471-1.414-1.528-2.137-4.014-1.933-6.65.454-5.864 1.602-11.227 3.414-16.049.173.19.347.38.531.564 1.48 1.48 3.117 2.556 4.733 3.219-.157 4.17.257 8.657 1.227 13.516.343 1.721-.017 3.484-.989 4.838-.322.449-.22 1.074.229 1.396s1.074.22 1.396-.229c1.294-1.803 1.778-4.134 1.326-6.396-.897-4.491-1.298-8.647-1.19-12.519.525.101 1.042.168 1.538.168 1.514 0 2.863-.476 3.855-1.467.391-.391.391-1.023 0-1.414s-1.023-.391-1.414 0c-.867.867-2.275 1.059-3.854.691.183-2.39.569-4.673 1.169-6.852 1.711 1.069 3.442 1.645 4.932 1.644 1.18 0 2.209-.356 2.957-1.104 1.421-1.421 1.483-3.899.165-6.629-.24-.497-.838-.706-1.335-.465-.497.24-.706.838-.465 1.335.917 1.899 1.002 3.564.222 4.345-.951.95-3.357.596-5.87-1.135 2.32-6.721 6.77-12.479 13.485-17.658.402-.31.508-.872.246-1.307s-.807-.603-1.27-.396c-7.036 3.187-12.779 7.731-17.15 13.5-.378-1.042-.551-2.005-.551-2.748v-8.764l1.867 1.867c.195.195.451.293.707.293s.512-.098.707-.293c.391-.391.391-1.023 0-1.414l-3.574-3.574c-.181-.181-.431-.293-.708-.293s-.526.112-.707.293l-3.573 3.574c-.391.391-.391 1.024 0 1.414.391.391 1.023.391 1.414 0l1.866-1.867-.001 8.762c0 1.276.357 2.946 1.198 4.675-1.339 1.983-2.542 4.084-3.579 6.324-.366-.712-.64-1.434-.808-2.145-.395-1.673-.149-3.056.689-3.896.391-.391.391-1.023 0-1.414s-1.023-.391-1.414 0c-1.347 1.347-1.781 3.396-1.222 5.769.314 1.333.931 2.686 1.786 3.968-2.126 5.283-3.474 11.199-3.978 17.718-.246 3.183.673 6.235 2.459 8.164zm17.598-43.584c-3.229 3.587-5.602 7.449-7.161 11.671-.104-.098-.21-.178-.313-.281-.695-.695-1.247-1.428-1.699-2.16 2.548-3.548 5.604-6.642 9.173-9.23zm-10.388 11.01c.434.609.92 1.214 1.5 1.794.338.339.685.652 1.036.949-.703 2.357-1.167 4.825-1.395 7.418-1.183-.579-2.379-1.418-3.456-2.495-.397-.397-.763-.81-1.098-1.235.979-2.277 2.12-4.421 3.413-6.431z"/><path d="m62.437 65v-22.509c0-.552-.448-1-1-1h-7.124c-.552 0-1 .448-1 1s.448 1 1 1h6.124v20.509h-52.874v-6c0-.552-.448-1-1-1s-1 .448-1 1v7c0 .552.448 1 1 1h54.874c.552 0 1-.448 1-1z"/><path d="m24.102 43.161.063-.56c.032-.283-.059-.565-.249-.777-.189-.212-.46-.333-.745-.333h-16.608c-.552 0-1 .448-1 1v10.96c0 .552.448 1 1 1s1-.448 1-1v-9.96h14.489c-.048.431-.092.863-.126 1.303-.356 4.602 1.016 8.944 3.764 11.914 2.209 2.387 5.16 3.702 8.31 3.702 3.443 0 6.705-1.568 8.947-4.302 2.463-3.004 3.427-6.974 2.645-10.891-.116-.583-.223-1.158-.32-1.727h5.077c.552 0 1-.448 1-1s-.448-1-1-1h-6.253c-.292 0-.569.127-.759.349-.19.221-.273.515-.229.803.149.97.322 1.957.523 2.966.664 3.327-.149 6.692-2.231 9.231-1.86 2.269-4.558 3.57-7.4 3.57-2.586 0-5.017-1.087-6.843-3.061-2.371-2.562-3.551-6.353-3.238-10.401.048-.603.115-1.195.183-1.786z"/></g></svg>