<svg id="Capa_1" enable-background="new 0 0 477.04 477.04" height="512" viewBox="0 0 477.04 477.04" width="512" xmlns="http://www.w3.org/2000/svg"><g><g id="layer1_6_" transform="translate(0 -10.583)"><g id="Medical-Hearth-Beat_1_"><g id="g2921"><g id="path1852"><path d="m144.547 29.875c-36.916 0-74.013 14.095-102.241 42.322-56.175 56.175-56.386 146.906-.759 203.42v.155l189.767 189.616c3.999 3.933 10.412 3.933 14.411 0l189.767-189.616c0-.051 0-.101 0-.155 55.627-56.513 55.417-147.244-.759-203.42-27.888-27.888-64.407-42.001-100.875-42.322-34.37-.303-67.717 10.097-95.263 34.272-27.2-23.932-60.056-34.272-94.048-34.272zm0 20.479c31.347 0 62.532 11.944 86.768 35.8 3.999 3.933 10.412 3.933 14.411 0 24.522-24.137 56.254-36.079 87.982-35.8 31.281.28 62.43 12.371 86.465 36.406 48.413 48.413 48.541 125.748.607 174.446l-182.184 182.335-182.334-182.335c-47.935-48.698-47.806-126.033.606-174.446 24.325-24.324 56.011-36.406 87.679-36.406z"/></g><g id="path1854"><path d="m209.774 156.69c-3.885.543-7.122 3.25-8.343 6.978l-25.181 75.088h-74.784c-5.647.061-10.186 4.668-10.163 10.315-.023 5.647 4.517 10.254 10.163 10.315h82.217c4.395-.01 8.298-2.815 9.708-6.978l17.748-53.092 45.053 135.158c1.86 5.362 7.714 8.201 13.075 6.341 2.973-1.031 5.31-3.368 6.341-6.341l25.181-75.088h74.784c5.647-.061 10.186-4.668 10.163-10.315.023-5.647-4.517-10.254-10.163-10.315h-82.217c-4.492-.034-8.485 2.853-9.86 7.13l-17.596 53.092-45.053-135.31c-1.54-4.68-6.186-7.607-11.073-6.978z"/></g></g></g></g></g></svg>