<?xml version="1.0" encoding="UTF-8"?>
<svg xmlns="http://www.w3.org/2000/svg" width="512" height="512" viewBox="0 0 128 128"><g><path d="M113.544,25.255A16.361,16.361,0,0,1,97.2,8.9a1.749,1.749,0,0,0-1.75-1.75H32.544a1.759,1.759,0,0,0-1.75,1.761,16.358,16.358,0,0,1-16.34,16.34,1.75,1.75,0,0,0-1.75,1.75v23.01a74.732,74.732,0,0,0,50.677,70.737,1.9,1.9,0,0,0,1.218-.04A74.664,74.664,0,0,0,115.3,49.965V27.005A1.758,1.758,0,0,0,113.544,25.255Zm-1.74,24.71A71.166,71.166,0,0,1,63.933,117.24,71.233,71.233,0,0,1,16.2,50.015V28.679A19.876,19.876,0,0,0,34.218,10.654H93.78A19.876,19.876,0,0,0,111.8,28.68Z"/><path d="M64,30.156A30.841,30.841,0,1,0,94.845,61,30.876,30.876,0,0,0,64,30.156Zm0,58.182A27.341,27.341,0,1,1,91.345,61,27.372,27.372,0,0,1,64,88.338Z"/><path d="M78.769,55.747H69.254V46.232a1.75,1.75,0,0,0-1.75-1.75h-7a1.751,1.751,0,0,0-1.75,1.75v9.515H49.239a1.75,1.75,0,0,0-1.75,1.75v7a1.75,1.75,0,0,0,1.75,1.75h9.515v9.515a1.751,1.751,0,0,0,1.75,1.75h7a1.75,1.75,0,0,0,1.75-1.75V66.247h9.515a1.749,1.749,0,0,0,1.75-1.75v-7A1.749,1.749,0,0,0,78.769,55.747Zm-1.75,7H67.5a1.75,1.75,0,0,0-1.75,1.75v9.515h-3.5V64.5a1.749,1.749,0,0,0-1.75-1.75H50.989v-3.5H60.5a1.749,1.749,0,0,0,1.75-1.75V47.982h3.5V57.5a1.75,1.75,0,0,0,1.75,1.75h9.515Z"/></g></svg>
