<svg id="Capa_1" enable-background="new 0 0 512 512" height="512" viewBox="0 0 512 512" width="512" xmlns="http://www.w3.org/2000/svg"><g><path d="m137.908 205.22-32.146-15.413c-3.733-1.792-8.215-.216-10.005 3.521-1.791 3.734-.215 8.214 3.521 10.005l32.146 15.413c3.741 1.796 8.218.207 10.005-3.521 1.79-3.735.214-8.214-3.521-10.005z"/><path d="m131.423 293.256-32.146 15.413c-3.735 1.791-5.312 6.271-3.521 10.005 1.289 2.689 3.973 4.26 6.768 4.26 1.088 0 2.192-.237 3.237-.739l32.146-15.413c3.735-1.791 5.312-6.271 3.521-10.005-1.791-3.737-6.275-5.312-10.005-3.521z"/><path d="m134.666 265.152c4.143 0 7.5-3.357 7.5-7.5s-3.357-7.5-7.5-7.5h-34.349c-4.143 0-7.5 3.357-7.5 7.5s3.357 7.5 7.5 7.5z"/><path d="m380.577 218.745 32.146-15.413c3.735-1.791 5.312-6.271 3.521-10.005-1.79-3.736-6.273-5.312-10.005-3.521l-32.146 15.413c-3.735 1.791-5.312 6.271-3.521 10.005 1.794 3.743 6.281 5.31 10.005 3.521z"/><path d="m412.723 308.669-32.146-15.413c-3.733-1.792-8.215-.216-10.005 3.521-1.791 3.734-.215 8.214 3.521 10.005l32.146 15.413c1.046.502 2.149.739 3.237.739 2.795 0 5.479-1.57 6.768-4.26 1.791-3.735.214-8.214-3.521-10.005z"/><path d="m411.683 250.152h-34.349c-4.143 0-7.5 3.357-7.5 7.5s3.357 7.5 7.5 7.5h34.349c4.143 0 7.5-3.357 7.5-7.5s-3.357-7.5-7.5-7.5z"/><path d="m295.793 260.596c-14.469-.697-28.386 3.59-39.791 12.152-11.405-8.564-25.304-12.845-39.793-12.152-32.251 1.551-57.909 28.075-58.414 60.387-.3 19.205 8.146 37.085 23.172 49.057 14.326 11.414 22.543 28.027 22.543 45.58v24.046c0 4.143 3.357 7.5 7.5 7.5s7.5-3.357 7.5-7.5v-24.046c0-22.146-10.277-43.036-28.196-57.312-11.361-9.051-17.747-22.57-17.521-37.09.382-24.42 19.769-44.467 44.136-45.639 16.781-.803 31.43 7.247 40.136 19.453 6.231 8.736 15.524 14.694 26.165 16.774l3.459.677c4.036.794 8.001-1.833 8.801-5.92.796-4.065-1.855-8.006-5.92-8.801l-3.46-.677c-6.861-1.342-12.839-5.165-16.833-10.764-.726-1.019-1.485-2.016-2.274-2.99 8.221-5.517 17.962-8.241 28.071-7.753 24.368 1.171 43.757 21.217 44.139 45.638.398 25.452-20.153 47.187-46.434 47.187-5.83 0-11.511-1.064-16.885-3.163-3.858-1.503-8.207.399-9.715 4.258-1.507 3.858.399 8.208 4.258 9.715 7.121 2.78 14.638 4.19 22.342 4.19.239 0 .478-.002.717-.005v121.102c0 4.143 3.357 7.5 7.5 7.5s7.5-3.357 7.5-7.5v-123.13c26.898-7.113 46.159-32.01 45.715-60.389-.506-32.312-26.166-58.836-58.418-60.385z"/><path d="m211.01 461.165c-4.143 0-7.5 3.357-7.5 7.5v35.835c0 4.143 3.357 7.5 7.5 7.5s7.5-3.357 7.5-7.5v-35.835c0-4.143-3.357-7.5-7.5-7.5z"/><path d="m334.491 155.03c-3.507 2.204-4.563 6.834-2.36 10.341 4.774 7.598 7.224 16.386 7.082 25.412-.382 24.421-19.769 44.468-44.137 45.639-16.466.799-31.256-7.003-40.135-19.452-6.231-8.736-15.524-14.694-26.165-16.774l-3.459-.677c-4.065-.8-8.006 1.855-8.801 5.92-.796 4.065 1.855 8.006 5.92 8.801l3.46.677c6.861 1.342 12.839 5.165 16.833 10.764.726 1.019 1.485 2.016 2.274 2.99-8.219 5.518-17.954 8.244-28.073 7.752-24.367-1.17-43.755-21.217-44.137-45.638-.4-25.57 20.268-47.186 46.434-47.186 5.83 0 11.511 1.064 16.885 3.163 3.892 1.518 8.22-.431 9.715-4.258 1.507-3.858-.399-8.208-4.258-9.715-7.121-2.78-14.638-4.19-22.342-4.19-.239 0-.478.002-.717.005v-121.104c0-4.143-3.357-7.5-7.5-7.5s-7.5 3.357-7.5 7.5v123.13c-26.898 7.114-46.159 32.011-45.715 60.389.506 32.313 26.165 58.838 58.415 60.386 14.49.688 28.388-3.588 39.793-12.152 11.449 8.599 25.354 12.845 39.793 12.152 32.251-1.549 57.909-28.074 58.414-60.387.187-11.937-3.057-23.564-9.379-33.627-2.203-3.506-6.833-4.562-10.34-2.361z"/><path d="m318.04 147.49c1.79 0 3.586-.637 5.02-1.929 3.077-2.773 3.322-7.516.55-10.593-9.746-10.812-15.113-24.517-15.113-38.588v-88.88c0-4.143-3.357-7.5-7.5-7.5s-7.5 3.357-7.5 7.5v88.881c0 17.787 6.737 35.059 18.971 48.631 1.48 1.642 3.522 2.478 5.572 2.478z"/></g></svg>