<svg id="Layer_1_1_" enable-background="new 0 0 64 64" height="512" viewBox="0 0 64 64" width="512" xmlns="http://www.w3.org/2000/svg"><path d="m49.994 33.11c.032-.282-.059-.565-.249-.777s-.46-.333-.745-.333h-4c-.425 0-.804.269-.944.67l-.375 1.088c-.993 3.972-2.708 6.368-5.083 9.686l-.514.719c-.375.524-.983.837-1.628.837h-.026c.954-1.063 1.54-2.462 1.54-4 0-3.309-2.691-6-6-6s-6 2.691-6 6c0 1.537.586 2.937 1.54 4-.643-.001-1.25-.314-1.623-.834l-.518-.726c-2.374-3.315-4.088-5.712-5.106-9.77l-.35-1c-.14-.401-.519-.67-.944-.67h-4c-.285 0-.556.121-.745.333-.19.212-.28.495-.249.777.5 4.495 2.124 8.835 4.697 12.551l5.297 7.651v8.688h2v-9c0-.203-.062-.402-.178-.569l-5.475-7.908c-2.172-3.137-3.615-6.754-4.205-10.522h2.151l.086.242c1.084 4.34 2.986 6.997 5.394 10.361l.516.723c.751 1.047 1.968 1.673 3.257 1.673h8.941c1.289 0 2.505-.626 3.256-1.677l.512-.716c2.409-3.365 4.312-6.023 5.371-10.277l.115-.33h2.147c-.589 3.768-2.032 7.385-4.205 10.522l-5.475 7.908c-.115.168-.177.367-.177.57v9h2v-8.688l5.297-7.651c2.574-3.717 4.198-8.057 4.697-12.551zm-18.023 3.89c2.206 0 4 1.794 4 4s-1.794 4-4 4-4-1.794-4-4 1.794-4 4-4z"/><path d="m31.442 27.83c.169.113.364.17.558.17s.389-.057.558-.17c2.215-1.489 9.442-6.781 9.442-12.382 0-2.709-1.564-4.742-4.082-5.306-1.928-.435-4.355.139-5.918 1.935-1.563-1.796-3.988-2.373-5.918-1.935-2.518.564-4.082 2.597-4.082 5.306 0 5.601 7.227 10.893 9.442 12.382zm-4.923-15.736c.273-.062.561-.093.855-.093 1.413 0 2.968.723 3.722 2.321.165.35.517.573.904.573s.739-.224.904-.573c.911-1.933 2.993-2.586 4.577-2.229.758.171 2.519.837 2.519 3.355 0 4.276-5.826 8.798-8 10.337-2.174-1.539-8-6.061-8-10.337 0-2.518 1.761-3.184 2.519-3.354z"/><path d="m45 16h4v2h-4z"/><path d="m15 16h4v2h-4z"/><path d="m31 2h2v4h-2z"/><path d="m20.393 5.414h2v4h-2z" transform="matrix(.707 -.707 .707 .707 1.023 17.299)"/><path d="m40.607 6.414h4v2h-4z" transform="matrix(.707 -.707 .707 .707 7.235 32.296)"/></svg>