<svg height="95" viewBox="0 0 95 95" width="95" xmlns="http://www.w3.org/2000/svg"><path d="m17 47.05a1.69 1.69 0 0 1 .34-3.36 1.68 1.68 0 0 1 -.17 3.36zm-1.5 5.21a1.73 1.73 0 0 1 1.5-1.85 1.65 1.65 0 0 1 1.85 1.46 1.62 1.62 0 0 1 -1.46 1.85.43.43 0 0 1 -.22.06 1.74 1.74 0 0 1 -1.67-1.52zm2.58-11.82a1.67 1.67 0 0 1 -1.08-2.12 1.72 1.72 0 0 1 2.13-1.06 1.7 1.7 0 0 1 -.5 3.3 2 2 0 0 1 -.55-.12zm-1 18.71a1.66 1.66 0 1 1 3.14-1.06 1.69 1.69 0 0 1 -1 2.13 2.12 2.12 0 0 1 -.56.06 1.63 1.63 0 0 1 -1.59-1.13zm3.47-24.92a1.71 1.71 0 0 1 -.56-2.3 1.68 1.68 0 0 1 2.3-.62 1.71 1.71 0 0 1 .56 2.35 1.6 1.6 0 0 1 -1.4.78 1.64 1.64 0 0 1 -.91-.21zm-.55 31.3a1.67 1.67 0 1 1 2.86-1.74 1.7 1.7 0 0 1 -.56 2.3 1.65 1.65 0 0 1 -.9.22 1.6 1.6 0 0 1 -1.4-.78zm4.26-36.85a1.76 1.76 0 1 1 1.18.45 1.92 1.92 0 0 1 -1.15-.45zm0 42.45a1.66 1.66 0 1 1 2.35.06 1.52 1.52 0 0 1 -1.12.45 1.74 1.74 0 0 1 -1.2-.51zm4.87-47a1.69 1.69 0 1 1 2.35.39 1.52 1.52 0 0 1 -1 .34 1.75 1.75 0 0 1 -1.32-.77zm.5 51.58a1.59 1.59 0 0 1 -.45-2.3 1.67 1.67 0 1 1 1.44 2.59 1.52 1.52 0 0 1 -.95-.33zm5.21-55a1.7 1.7 0 0 1 3.16-1.38 1.65 1.65 0 0 1 -1 2.18 1.12 1.12 0 0 1 -.62.17 1.78 1.78 0 0 1 -1.5-1.06zm1 58.35a1.66 1.66 0 1 1 2.18-.9 1.78 1.78 0 0 1 -1.57 1.06 1.27 1.27 0 0 1 -.57-.22zm5.38-60.54a1.65 1.65 0 0 1 1.34-1.9 1.68 1.68 0 1 1 .56 3.3c-.11 0-.17.06-.28.06a1.68 1.68 0 0 1 -1.58-1.54zm1.4 62.44a1.65 1.65 0 0 1 -1.3-1.96 1.62 1.62 0 0 1 1.9-1.4 1.66 1.66 0 0 1 -.28 3.3h-.28zm6.93-61.46a1.74 1.74 0 0 1 -1.68-1.79 1.69 1.69 0 0 1 1.79-1.57 1.65 1.65 0 0 1 1.57 1.79 1.63 1.63 0 0 1 -1.68 1.57zm-1.63 60.14a1.72 1.72 0 0 1 1.62-1.74 1.68 1.68 0 0 1 1.74 1.57 1.65 1.65 0 0 1 -1.57 1.79h-.11a1.75 1.75 0 0 1 -1.68-1.62zm7.78-59.14a1.69 1.69 0 0 1 -1.18-2.07 1.72 1.72 0 0 1 2.07-1.18 1.68 1.68 0 0 1 -.45 3.3 1.38 1.38 0 0 1 -.43-.04zm-1.11 58.5a1.7 1.7 0 0 1 1.18-2.07 1.65 1.65 0 0 1 2.07 1.18 1.59 1.59 0 0 1 -1.18 2 1.06 1.06 0 0 1 -.45.11 1.73 1.73 0 0 1 -1.62-1.22zm7-56.11a1.72 1.72 0 0 1 -.67-2.29 1.61 1.61 0 0 1 2.24-.67 1.62 1.62 0 0 1 .73 2.24 1.76 1.76 0 0 1 -1.51.9 2 2 0 0 1 -.79-.21zm-.59 53.9a1.62 1.62 0 0 1 .67-2.24 1.72 1.72 0 0 1 2.3.67 1.74 1.74 0 0 1 -.73 2.3 1.78 1.78 0 0 1 -.78.17 1.52 1.52 0 0 1 -1.46-.9zm5.88-50.4a1.65 1.65 0 1 1 1.06.39 1.48 1.48 0 0 1 -1.09-.39zm-.17 47a1.69 1.69 0 1 1 2.58-2.18 1.69 1.69 0 0 1 -.29 2.33 1.48 1.48 0 0 1 -1.06.39 1.62 1.62 0 0 1 -1.26-.56zm4.51-42.39a1.63 1.63 0 0 1 .28-2.35 1.67 1.67 0 1 1 2.07 2.63 1.57 1.57 0 0 1 -1.06.39 1.5 1.5 0 0 1 -1.29-.67zm.34 37.74a1.66 1.66 0 1 1 2.35-.28 1.85 1.85 0 0 1 -1.34.67 1.44 1.44 0 0 1 -1.01-.41zm2.91-32.37a1.62 1.62 0 0 1 .78-2.18 1.68 1.68 0 1 1 1.46 3 1.64 1.64 0 0 1 -2.24-.83zm.84 26.88a1.69 1.69 0 1 1 2.24-.84 1.65 1.65 0 0 1 -1.51 1 2.85 2.85 0 0 1 -.73-.17zm2.46-6.25a1.66 1.66 0 0 1 -1.29-2 1.69 1.69 0 1 1 3.3.73 1.67 1.67 0 0 1 -1.62 1.27 1 1 0 0 1 -.39 0zm-1.29-14.65a1.69 1.69 0 0 1 3.3-.73 1.69 1.69 0 0 1 -1.29 2 .84.84 0 0 1 -.39.06 1.72 1.72 0 0 1 -1.62-1.33zm.67 6.33a1.73 1.73 0 0 1 1.68-1.74 1.68 1.68 0 0 1 1.68 1.68v.06a1.65 1.65 0 0 1 -1.68 1.68z"/></svg>