<svg id="Glyph" viewBox="0 0 64 64" xmlns="http://www.w3.org/2000/svg"><path d="m49 21c0-9.69-8.11-17.49-17.92-16.98-8.41.44-15.36 7.21-16.02 15.6-.73 9.32 6.06 17.2 14.95 18.25v12.13h-4c-.55 0-1 .45-1 1v2c0 .55.45 1 1 1h4v5c0 .55.45 1 1 1h2c.55 0 1-.45 1-1v-5h4c.55 0 1-.45 1-1v-2c0-.55-.45-1-1-1h-4v-12.13c8.44-.99 15-8.16 15-16.87zm-30 0c0-7.17 5.83-13 13-13s13 5.83 13 13-5.83 13-13 13-13-5.83-13-13z"/><g><rect height="10" rx="1" width="4" x="26" y="16"/><rect height="10" rx="1" width="4" x="34" y="16"/></g></svg>