<svg id="Capa_1" enable-background="new 0 0 512 512" height="512" viewBox="0 0 512 512" width="512" xmlns="http://www.w3.org/2000/svg"><g><path d="m193.2 212.968c-3.584-2.08-8.173-.857-10.25 2.727-13.26 22.87-19.807 45.021-20.015 67.716-.472 51.369 40.938 93.545 92.308 94.017.29.002.577.004.866.004 31.103 0 59.975-15.38 77.368-41.261 2.31-3.438 1.396-8.099-2.042-10.408-3.438-2.311-8.097-1.396-10.408 2.041-14.732 21.922-39.263 34.909-65.646 34.624-43.1-.396-77.842-35.781-77.447-78.881.184-20.03 6.069-39.764 17.992-60.329 2.079-3.583.858-8.173-2.726-10.25z"/><path d="m339.33 311.685c3.391-.001 6.465-2.316 7.288-5.759 1.691-7.076 2.549-14.386 2.549-21.727 0-54.839-38.35-97.48-63.727-125.698-5.689-6.326-10.603-11.789-14.484-16.661-3.649-4.58-9.1-7.207-14.955-7.207s-11.306 2.627-14.956 7.208c-3.881 4.871-8.795 10.336-14.485 16.662-8.119 9.028-17.322 19.261-26.225 30.832-2.526 3.283-1.912 7.991 1.371 10.518 3.281 2.524 7.991 1.912 10.518-1.371 8.552-11.115 17.55-21.12 25.489-29.948 5.607-6.234 10.904-12.124 15.064-17.346 1.078-1.352 2.482-1.555 3.224-1.555.741 0 2.146.202 3.223 1.554 4.16 5.223 9.456 11.111 15.063 17.346 25.271 28.099 59.88 66.581 59.88 115.667 0 6.168-.719 12.305-2.138 18.24-.963 4.028 1.522 8.075 5.551 9.038.586.14 1.172.207 1.75.207z"/><path d="m74.19 220.003c-2.928-2.928-7.677-2.928-10.606 0l-17.021 17.02c9.626-107.103 99.871-191.329 209.437-191.329 45.244 0 88.347 14.144 124.652 40.905 35.593 26.236 61.629 62.204 75.293 104.015 1.287 3.936 5.522 6.085 9.459 4.799 3.938-1.287 6.086-5.521 4.799-9.459-14.64-44.796-42.529-83.328-80.651-111.429-38.901-28.675-85.083-43.831-133.552-43.831-60.182 0-116.761 23.435-159.316 65.99-38.418 38.418-61.244 88.269-65.32 141.879l-18.561-18.56c-2.929-2.928-7.678-2.928-10.606 0-2.929 2.93-2.929 7.678 0 10.607l30.693 30.693c1.464 1.464 3.384 2.196 5.303 2.196s3.839-.732 5.303-2.196l30.694-30.693c2.93-2.93 2.93-7.678 0-10.607z"/><path d="m509.803 280.753-30.694-30.694c-1.406-1.406-3.314-2.196-5.303-2.196s-3.897.79-5.303 2.196l-30.694 30.694c-2.929 2.93-2.929 7.678 0 10.607 2.929 2.928 7.678 2.928 10.606 0l17.082-17.083c-9.293 107.436-99.692 192.029-209.497 192.029-43.178 0-84.663-12.985-119.97-37.552-34.514-24.015-60.802-57.326-76.024-96.335-1.505-3.858-5.854-5.76-9.713-4.261-3.858 1.506-5.766 5.854-4.26 9.714 16.307 41.79 44.465 77.475 81.431 103.195 37.833 26.324 82.28 40.238 128.537 40.238 60.182 0 116.761-23.436 159.315-65.991 38.564-38.564 61.397-88.65 65.345-142.492l18.537 18.537c1.464 1.464 3.384 2.196 5.303 2.196s3.839-.732 5.303-2.196c2.929-2.929 2.929-7.677-.001-10.606z"/></g></svg>