<svg id="layer_1" enable-background="new 0 0 32 32" viewBox="0 0 32 32" xmlns="http://www.w3.org/2000/svg"><g><path d="m8.4389648 14.8779297c3.550293 0 6.4389648-2.8886719 6.4389648-6.4384766.0000001-3.5507812-2.8886718-6.4394531-6.4389648-6.4394531s-6.4389648 2.8886719-6.4389648 6.4394531c0 3.5498047 2.8886719 6.4384766 6.4389648 6.4384766zm0-10.8779297c2.4477539 0 4.4389648 1.9912109 4.4389648 4.4394531 0 2.4472656-1.9912109 4.4384766-4.4389648 4.4384766s-4.4389648-1.9912109-4.4389648-4.4384766c0-2.4482422 1.9912109-4.4394531 4.4389648-4.4394531z"/><path d="m8.4389648 30c3.550293 0 6.4389648-2.8886719 6.4389648-6.4394531 0-3.5498047-2.8886719-6.4384766-6.4389648-6.4384766s-6.4389648 2.8886719-6.4389648 6.4384766c0 3.5507812 2.8886719 6.4394531 6.4389648 6.4394531zm0-10.8779297c2.4477539 0 4.4389648 1.9912109 4.4389648 4.4384766.0000001 2.4482422-1.9912108 4.4394531-4.4389648 4.4394531s-4.4389648-1.9912109-4.4389648-4.4394531c0-2.4472657 1.9912109-4.4384766 4.4389648-4.4384766z"/><path d="m23.5610352 17.1220703c-3.550293 0-6.4389648 2.8886719-6.4389648 6.4384766-.0000001 3.5507812 2.8886718 6.4394531 6.4389648 6.4394531s6.4389648-2.8886719 6.4389648-6.4394531c0-3.5498047-2.8886719-6.4384766-6.4389648-6.4384766zm0 10.8779297c-2.4477539 0-4.4389648-1.9912109-4.4389648-4.4394531 0-2.4472656 1.9912109-4.4384766 4.4389648-4.4384766s4.4389648 1.9912109 4.4389648 4.4384766c0 2.4482422-1.9912109 4.4394531-4.4389648 4.4394531z"/><path d="m29 7.4394531h-4.4389648v-4.4394531c0-.5527344-.4477539-1-1-1s-1 .4472656-1 1v4.4394531h-4.4389648c-.5522461 0-1 .4472656-1 1s.4477539 1 1 1h4.4389648v4.4384766c0 .5527344.4477539 1 1 1s1-.4472656 1-1v-4.4384766h4.4389648c.5522461 0 1-.4472656 1-1s-.4477539-1-1-1z"/></g></svg>