<?xml version="1.0" encoding="UTF-8"?>
<svg xmlns="http://www.w3.org/2000/svg" id="Layer_1" data-name="Layer 1" viewBox="0 0 64 64" width="512" height="512"><path d="M28,29a3,3,0,0,0,3-3H29a1,1,0,0,1-2,0H25A3,3,0,0,0,28,29Z"/><path d="M36,29a3,3,0,0,0,3-3H37a1,1,0,0,1-2,0H33A3,3,0,0,0,36,29Z"/><path d="M15,62H49a3,3,0,0,0,3-3V44a3,3,0,0,1,.37-1.45l2.87-5.21c.53.15,1.06.29,1.58.45A3.86,3.86,0,0,0,58,38a4.45,4.45,0,0,0,.81-.08,4,4,0,0,0,3.12-3.12,4.1,4.1,0,0,0-.09-2,49.43,49.43,0,0,1-1.32-5.06l.09-.15a5,5,0,0,0,.29-4.19A4.91,4.91,0,0,0,60,22V17a34.07,34.07,0,0,1,1.84-9.85,4.09,4.09,0,0,0,.09-2,4,4,0,0,0-5.09-3A34.47,34.47,0,0,1,47,4H17.05A34.34,34.34,0,0,1,7.18,2.17a4.09,4.09,0,0,0-2-.09A4,4,0,0,0,2.08,5.2a4.05,4.05,0,0,0,.09,2A34,34,0,0,1,4,17v5a4.69,4.69,0,0,0-.89,1.45,5,5,0,0,0,.29,4.19l.08.15a49,49,0,0,1-1.32,5.07,4.05,4.05,0,0,0-.09,2,4,4,0,0,0,3.13,3.12A4.43,4.43,0,0,0,6,38a4.07,4.07,0,0,0,1.16-.17c.53-.17,1.06-.31,1.6-.46l2.86,5.21A3,3,0,0,1,12,44V59A3,3,0,0,0,15,62ZM60,34.41A2,2,0,0,1,58.41,36a2.1,2.1,0,0,1-1-.05l-1.19-.34,2.84-5.16c.29,1.11.59,2.14.85,3A2,2,0,0,1,60,34.41ZM4,5.58A2,2,0,0,1,5.59,4a2,2,0,0,1,1,0A36.41,36.41,0,0,0,17.05,6H47A36.21,36.21,0,0,0,57.42,4.08a2.19,2.19,0,0,1,1,0A2,2,0,0,1,60,5.58a2.11,2.11,0,0,1,0,1A36,36,0,0,0,58,17v3.54l-.12-.05L43.33,15.41A12,12,0,0,0,32,8a12,12,0,0,0-11.33,7.41L6.13,20.5,6,20.55V17A35.94,35.94,0,0,0,4.09,6.58,2.11,2.11,0,0,1,4,5.58ZM23,29a1,1,0,0,1-1-1,1,1,0,0,1,.31-.71A.93.93,0,0,1,23,27a1,1,0,0,0,.81-.42,1,1,0,0,0,.14-.9,5.82,5.82,0,0,1-.26-2.62,5.9,5.9,0,0,1,1.81-3.49A15,15,0,0,0,32,21a14.91,14.91,0,0,0,6.49-1.43,5.82,5.82,0,0,1,1.56,6.11,1,1,0,0,0,.14.9A1,1,0,0,0,41,27a1,1,0,0,1,0,2,1,1,0,0,0-1,1v.58a6.94,6.94,0,0,1-5.48,6.83L32,38l-2.52-.56A6.94,6.94,0,0,1,24,30.58V30A1,1,0,0,0,23,29Zm-1,1.83a8.87,8.87,0,0,0,.24,1.79L14,27.12l7.1-3.55a9.58,9.58,0,0,0,.62,1.07c0,.2,0,.41.07.62a2.83,2.83,0,0,0-.89.61A3,3,0,0,0,20,28,3,3,0,0,0,22,30.83ZM22,19c0-5,4.49-9,10-9s10,4,10,9a8.33,8.33,0,0,1-.24,1.87,7.86,7.86,0,0,0-2.53-3.29,1,1,0,0,0-1.09-.08A12.74,12.74,0,0,1,32,19a12.81,12.81,0,0,1-6.15-1.5,1,1,0,0,0-1.08.07,8,8,0,0,0-2.53,3.3A8.41,8.41,0,0,1,22,19ZM42,30.83a3,3,0,0,0,.22-5.57c0-.21.05-.42.07-.63a8.63,8.63,0,0,0,.62-1.06L50,27.12l-8.25,5.5A8.87,8.87,0,0,0,42,30.83ZM6.58,35.91A2,2,0,0,1,4,34.42a2.1,2.1,0,0,1,0-1c.26-.86.57-1.9.85-3l2.84,5.16ZM5.16,26.66A3,3,0,0,1,5,24.14a3.05,3.05,0,0,1,1.81-1.76l13.3-4.65A8.93,8.93,0,0,0,20,19a10.22,10.22,0,0,0,.37,2.7l-8.82,4.4a1,1,0,0,0-.55.84,1,1,0,0,0,.45.89l12.46,8.31A8.94,8.94,0,0,0,29,39.36l2.74.62L32,40l.22,0L35,39.37a9,9,0,0,0,5.13-3.22l12.47-8.32a1,1,0,0,0,.44-.89,1,1,0,0,0-.55-.84l-8.82-4.4A10.22,10.22,0,0,0,44,19a8.93,8.93,0,0,0-.09-1.27l13.3,4.65A3.05,3.05,0,0,1,59,24.14a3,3,0,0,1-.18,2.52l-8.23,15A5.07,5.07,0,0,0,50,44V59a1,1,0,0,1-1,1H15a1,1,0,0,1-1-1V44a5.07,5.07,0,0,0-.61-2.41Z"/></svg>
