<svg id="Outline" viewBox="0 0 64 64" xmlns="http://www.w3.org/2000/svg"><path d="m26.51 38.18c-1.55 0-2.98-.71-3.91-1.95-.33-.44-.25-1.07.19-1.4s1.07-.25 1.4.19c.56.74 1.4 1.16 2.32 1.16s1.76-.42 2.32-1.16c.33-.44.96-.53 1.4-.19.44.33.53.96.19 1.4-.94 1.24-2.37 1.95-3.91 1.95zm14.32-3.16c-.56.74-1.4 1.16-2.32 1.16s-1.76-.42-2.32-1.16c-.33-.44-.96-.53-1.4-.19-.44.33-.53.96-.19 1.4.94 1.24 2.37 1.95 3.91 1.95s2.98-.71 3.91-1.95c.33-.44.25-1.07-.19-1.4s-1.07-.25-1.4.19zm-6.1 10.33c-.5.46-1.33.73-2.21.73s-1.71-.27-2.21-.73c-.41-.37-1.04-.34-1.41.07s-.34 1.04.07 1.41c.87.79 2.17 1.24 3.55 1.24s2.68-.45 3.55-1.24c.41-.37.44-1 .07-1.41s-1-.44-1.41-.07zm23.87 7.64c0 .41-.26.78-.65.92-3.16 1.18-4.57 4.59-4.59 4.62-.15.38-.52.62-.93.62-.41 0-.77-.25-.93-.62-1.38-3.43-4.55-4.6-4.58-4.61-.38-.14-.65-.5-.66-.9-.02-.41.22-.79.59-.95 3.61-1.6 4.59-4.46 4.63-4.58.13-.41.51-.68.94-.69.4-.04.81.26.95.66 1.12 3.15 4.56 4.57 4.59 4.58.38.15.63.53.63.94zm-3.12-.04c-.96-.64-2.15-1.61-3.05-2.97-.62.92-1.59 2.04-3.05 2.99.96.63 2.14 1.62 3.08 3.07.64-.97 1.63-2.17 3.02-3.09zm-13.57.65v6.4c0 .55-.45 1-1 1s-1-.45-1-1v-5.24c-2.26 1.11-4.78 1.74-7.4 1.74-.1 0-.2 0-.31 0-2.68-.05-5.25-.78-7.54-2.04v5.54c0 .55-.45 1-1 1s-1-.45-1-1v-6.83c-2.35-1.77-4.27-4.16-5.5-6.98-1.94 1.91-2.83 4.08-2.84 4.11-.15.38-.52.63-.93.63-.41 0-.78-.25-.93-.63-1.91-4.75-6.36-6.41-6.4-6.42-.38-.14-.65-.5-.66-.91s.22-.78.59-.95c2.81-1.25 4.47-3.04 5.4-4.42-.61-1.99-.84-3.5-.85-3.57-1.83-9.69 4.57-16.58 4.84-16.87 1.04-1.28 2.24-2.36 3.51-3.28 1.11-6.24 6.6-10.89 12.97-10.89h1.3c6.39 0 11.89 4.67 12.98 10.93 1.28.93 2.5 2 3.55 3.29.22.23 6.62 7.12 4.79 16.85-.05.31-1.34 8.63-6.11 12.21-.14.11-.3.16-.47.18-1.3 2.94-3.4 5.4-6 7.14zm-2.1-40.83c.21.45.36.89.44 1.26.68 4.61-1.87 6.76-2.99 7.47-.35.22-.75.38-1.17.51 11.91 4.56 12.02 12.32 11.99 13.25l.55 8.02c2.96-3.57 3.88-9.47 3.88-9.54 1.65-8.74-4.26-15.13-4.32-15.19-2.32-2.84-5.48-4.63-8.39-5.77zm-18.43-.45c5.42-2.95 11.13-3.45 11.47-3.47 1.79-.12 3.2.29 4.29.94 1.95.52 4.26 1.34 6.52 2.57-1.59-4.32-5.75-7.35-10.5-7.35h-1.3c-4.73 0-8.88 3.02-10.48 7.32zm-8.87 21.38s.09.58.29 1.42c.16-.12.36-.19.57-.19.42-.01.81.26.96.66.53 1.48 1.41 2.67 2.35 3.62l.27-3.96c-.04-1.08.09-11.23 18.28-15.08.36-.08.68-.2.96-.38 1.21-.76 2.55-2.32 2.09-5.41-.02-.08-.94-3.84-5.29-3.55-.09 0-10.65.94-16.11 7.65-.11.12-6.01 6.51-4.37 15.21zm5.63 9.19c-1.44-.88-3.41-2.4-4.77-4.67-.84 1.37-2.33 3.21-4.78 4.69 1.42.86 3.38 2.37 4.82 4.81.89-1.45 2.42-3.45 4.73-4.84zm28.54 1.18-.6-8.74s0-.09 0-.14c.02-.33.27-8.29-13.57-12.28-13.82 3.98-13.56 11.93-13.55 12.29v.13l-.38 5.45c1.18.81 2.13 1.2 2.15 1.21.38.15.63.53.63.94s-.26.78-.65.93c-.71.27-1.35.62-1.93 1.01 2.24 5.68 7.55 9.53 13.46 9.64h.27c6.47 0 12.24-4.25 14.17-10.43z"/></svg>