<svg id="Layer_1" enable-background="new 0 0 32 32" viewBox="0 0 32 32" xmlns="http://www.w3.org/2000/svg"><g fill="none" stroke="#000" stroke-linecap="round" stroke-linejoin="round" stroke-miterlimit="10"><path d="m19.637976 16.845558 1.988367.66494c.67041.275024 1.432251-.085083 1.645264-.777649.164124-.533752-.051208-1.111206-.52478-1.407104l-2.990479-1.655579-1.867184-2.881287"/><circle cx="15.739" cy="4.995" r="2.989"/><path d="m12.306925 20.272335-.212015 2.512455-3.612366 5.090149c-.447144.527527-.398987 1.313721.109131 1.782776.496582.458374 1.262634.456116 1.756409-.005249l3.634033-4.170166c.465027-.533569.818481-1.154907 1.039612-1.827271l.717443-2.275282"/><path d="m14.786579 9h.512852c1.53075 0 2.771667 1.240918 2.771667 2.771667v4.94013c0 .628225.249563 1.230722.693787 1.674946l1.91316 1.91316c.683773.683775 1.16017 1.547029 1.374163 2.490057l1.283384 5.655661c.124529.817742-.508423 1.554379-1.335592 1.554379h-.000002c-.608019 0-1.141127-.406166-1.302523-.992371l-1.969133-5.397594-4.944249-4.048466c-.791281-.647921-1.23305-1.629322-1.193439-2.651258l.147085-3.794806-1.763788 1.427829-.588908 2.973985c-.138386.698847-.818997 1.151646-1.517041 1.009258h-.000003c-.673635-.137409-1.119707-.780785-1.012142-1.459824l.540164-3.409949c.122672-.774409.54433-1.46976 1.174311-1.93654l2.430051-1.800533c.806137-.597303 1.782888-.919731 2.786196-.919731z"/></g></svg>