<?xml version="1.0" encoding="UTF-8"?>
<svg xmlns="http://www.w3.org/2000/svg" viewBox="0 0 64 64" width="512" height="512"><g id="_15-Gym" data-name="15-Gym"><path d="M62,21a3.39039,3.39039,0,0,0-1-2.41406L56.91418,14.5,59,12.41455a3.41443,3.41443,0,0,0,0-4.82861L56.41406,4.99951A3.49636,3.49636,0,0,0,51.58594,5L49.50018,7.08575,45.41406,2.99951A3.49636,3.49636,0,0,0,40.58594,3l-3.5857,3.58569-.58618-.58618A3.49636,3.49636,0,0,0,31.58594,6L28,9.58545a3.41443,3.41443,0,0,0,0,4.82861l7.08588,7.086L21.50018,35.08575l-7.08612-7.08624a3.49732,3.49732,0,0,0-4.82812,0V28L6,31.58545a3.41443,3.41443,0,0,0,0,4.82861l.58588.58588L3,40.58545a3.41443,3.41443,0,0,0,0,4.82861L7.08582,49.5,5,51.58545a3.41443,3.41443,0,0,0,0,4.82861l2.58594,2.58643A3.41443,3.41443,0,0,0,12.41406,59l2.08576-2.08575,4.08612,4.08624A3.41443,3.41443,0,0,0,23.41406,61l3.5857-3.58569.58618.58618A3.41443,3.41443,0,0,0,32.41406,58L36,54.41455a3.41443,3.41443,0,0,0,0-4.82861l-7.08588-7.086,13.5857-13.58569,7.08612,7.08624a3.415,3.415,0,0,0,4.82812,0V36L58,32.41455a3.41443,3.41443,0,0,0,0-4.82861l-.58588-.58588L61,23.41455A3.39236,3.39236,0,0,0,62,21ZM53,6.41455a1.44738,1.44738,0,0,1,2-.00049l2.58594,2.58643a1.414,1.414,0,0,1,0,1.99951l-2.08588,2.08588-4.58575-4.586ZM11,57.58545a1.44738,1.44738,0,0,1-2,.00049L6.41406,54.99951a1.414,1.414,0,0,1,0-1.99951l2.08588-2.08588,4.58575,4.586Zm11,2a1.44738,1.44738,0,0,1-2,.00049L4.41406,43.99951a1.414,1.414,0,0,1,0-1.99951L8,38.41406,25.58569,56.00018ZM35,52a1.40252,1.40252,0,0,1-.41406,1L31,56.58545a1.44738,1.44738,0,0,1-2,.00049L7.41406,34.99951a1.414,1.414,0,0,1,0-1.99951L11,29.41406a1.44834,1.44834,0,0,1,2,0L34.58594,51.00049A1.40056,1.40056,0,0,1,35,52ZM27.50012,41.08582l-4.58594-4.58594,13.5857-13.5857,4.58594,4.58594ZM56.58594,31,53,34.58594a1.44834,1.44834,0,0,1-2,0L29.41406,12.99951a1.414,1.414,0,0,1,0-1.99951L33,7.41455a1.414,1.414,0,0,1,2-.00049L56.58594,29.00049a1.414,1.414,0,0,1,0,1.99951Zm3-9L56,25.58594,38.41431,7.99982,42,4.41455a1.44738,1.44738,0,0,1,2-.00049L59.58594,20.00049a1.414,1.414,0,0,1,0,1.99951Z"/></g></svg>
