<?xml version="1.0" encoding="UTF-8"?>
<svg id="Layer_1" xmlns="http://www.w3.org/2000/svg" version="1.1" viewBox="0 0 618.51 155.62">
  <!-- Generator: Adobe Illustrator 29.8.2, SVG Export Plug-In . SVG Version: 2.1.1 Build 3)  -->
  <defs>
    <style>
      .st0 {
        fill: #153247;
      }
    </style>
  </defs>
  <g>
    <path class="st0" d="M147.3.5v25.04h-2.5l-15.13-15.52v15.52h-5.01V.5h2.47l15.17,15.52V.5h5.01Z"/>
    <path class="st0" d="M158.35,13.03c0-7.64,5.15-13.03,13.38-13.03s13.41,5.18,13.41,13.03-5.19,13-13.41,13-13.38-5.15-13.38-13ZM179.89,13.03c0-4.87-3.15-8.35-8.16-8.35s-8.12,3.27-8.12,8.35,3.15,8.31,8.12,8.31,8.16-3.27,8.16-8.31Z"/>
    <path class="st0" d="M195.95,15.66V.5h5.04v13.96c0,4.83,1.82,6.82,5.83,6.82s5.87-1.99,5.87-6.82V.5h5.04v15.16c0,6.85-3.65,10.37-10.91,10.37s-10.87-3.52-10.87-10.37Z"/>
    <path class="st0" d="M244.71,25.53l-5.01-7.1h-5.19v7.1h-5.04V.5h10.23c6.65,0,10.2,3.16,10.2,8.95,0,4.01-1.79,6.71-5.04,8.03l5.97,8.06h-6.12ZM244.64,9.62c0-3.16-1.68-4.79-5.33-4.79h-4.79v9.3h4.36c3.93,0,5.76-1.85,5.76-4.51Z"/>
    <path class="st0" d="M261.2.5h5.15v25.04h-5.15V.5Z"/>
    <path class="st0" d="M277.3,23.72l1.9-4.33c2.83,1.35,5.62,2.17,8.62,2.17,2.83,0,4.47-.99,4.47-2.98-.04-1.95-1.82-2.59-5.33-3.27-5.55-1.1-9.3-2.77-9.3-7.71,0-4.55,3.15-7.6,9.48-7.6,3.83,0,7.01.78,9.48,1.95l-2.07,4.19c-2.11-.89-4.65-1.6-7.41-1.6s-4.29,1.17-4.29,2.73c0,1.99,2.29,2.66,6.15,3.45,4.97.99,8.55,2.56,8.55,7.49s-3.26,7.81-9.48,7.81c-4.44,0-7.3-.75-10.77-2.31Z"/>
    <path class="st0" d="M308.07.5h5.04v10.09h11.52V.5h5.01v25.04h-5.01v-10.76h-11.52v10.76h-5.04V.5Z"/>
    <path class="st0" d="M358.69,25.53h-17.23v-4.33h12.26v-6.43h-12.07v-4.19h12.07v-5.75h-12.15V.5h17.12v25.04Z"/>
    <path class="st0" d="M369.53.5h9.87c7.87,0,12.48,4.08,12.48,12.22s-4.15,12.82-12.27,12.82h-10.09V.5ZM379.55,20.92c4.44,0,7.15-3.02,7.15-8.2,0-4.79-2.47-7.6-7.3-7.6h-4.94v15.8h5.08Z"/>
  </g>
  <g>
    <path class="st0" d="M0,149.33l6.67-9.74,1.63.6c2.37,5.84,6.22,10.64,10.81,10.64,4.3,0,10.81-2.85,15.56-36.4l11.7-54.97h-15.26l1.04-5.39h15.26l2.22-8.99c5.04-21.57,11.7-32.06,24.59-32.06,5.19,0,12.44,2.4,19.11,6.14l-9.19,9.89-1.78-.45c-2.22-5.84-5.78-10.94-9.78-10.94-4.89,0-10.07,2.7-14.07,36.4h21.48l-1.93,5.39h-20.74l-10.22,49.13c-7.41,35.05-16.89,47.04-28.89,47.04-5.93,0-12.89-3-18.22-6.29Z"/>
    <path class="st0" d="M73.93,99.15c0-22.92,18.96-46.89,42.67-46.89,17.19,0,26.37,11.98,26.37,28.31,0,23.22-19.11,46.59-42.81,46.59-17.78,0-26.22-12.88-26.22-28.01ZM130.67,83.87c0-15.73-6.07-26.36-17.33-26.36-13.48,0-27.11,14.98-27.11,38.05,0,14.98,5.78,26.51,17.63,26.51,13.78,0,26.81-15.58,26.81-38.2Z"/>
    <path class="st0" d="M161.33,76.38c2.37-11.38,3.11-15.73-7.7-18.57l.3-1.5c7.41-.75,15.41-1.95,23.26-4.34l-4.89,23.07c-1.33,5.99-3.85,14.83-8.89,29.36l1.48.45c16.15-42.09,22.96-52.58,31.7-52.58,2.37,0,4.74.9,6.67,2.55l-4.74,15.73h-2.07c-1.19-2.1-3.56-3.74-5.48-3.74-5.19,0-8.89,7.04-28.15,53.63l-1.04,5.24h-10.81l10.37-49.28Z"/>
    <path class="st0" d="M294.37,118.02c0-3.3,1.33-12.13,5.93-28.46,2.81-10.49,4-16.48,4-20.67,0-4.64-1.33-7.94-5.19-7.94-5.48,0-11.11,8.54-38.07,57.67l-1.48,7.04h-10.81l10.37-46.44c.89-3.75,1.48-6.59,1.48-10.49,0-4.19-1.04-7.79-4.89-7.79-6.22,0-11.11,8.39-38.37,57.67l-1.48,7.04h-10.81l11.26-53.33c1.93-9.29-1.33-12.73-8.74-14.53l.3-1.5c7.7-.6,15.7-2.25,23.41-4.34l-5.19,24.72c-1.78,7.94-5.19,19.77-8.44,29.21l1.48.3c20.3-37.15,28.89-53.93,41.33-53.93,6.81,0,10.96,6.59,10.96,14.08,0,3.89-.89,7.49-1.48,10.19-1.48,7.04-4.89,19.02-8.59,29.36l1.33.3c21.04-37.3,28-53.93,41.19-53.93,7.26,0,11.11,6.29,11.11,14.23,0,3.9-.89,8.09-4.3,24.12-3.41,16.33-4.3,20.07-4.3,22.17,0,1.8.59,2.85,1.78,2.85,1.63,0,3.41-1.05,9.33-9.29l1.63,1.05c-6.07,12.43-10.07,19.77-17.18,19.77-5.04,0-7.56-3.89-7.56-9.14Z"/>
    <path class="st0" d="M330.96,113.08c0-2.85.59-7.49,2.67-17.08l4.89-22.77c2.67-11.53-1.33-13.48-8.74-15.13l.3-1.65c7.85-.75,15.7-2.55,23.56-4.49l-9.63,45.69c-1.33,5.69-2.07,8.99-2.07,12.73,0,5.39,1.63,8.24,4.89,8.24,7.26,0,15.26-13.78,40.59-57.82l1.18-6.14,11.26-2.7-12.3,59.17c-.59,2.7.15,4.49,1.93,4.49,1.93,0,4.44-2.25,9.19-9.29l1.63,1.05c-6.67,13.18-10.67,19.77-17.33,19.77-5.18,0-7.55-3.89-7.55-8.99,0-1.05.3-3.75,1.33-8.54,3.7-16.03,6.07-23.22,9.78-34.45l-1.78-.45c-26.81,47.79-32.44,52.43-41.33,52.43s-12.44-5.54-12.44-14.08Z"/>
    <path class="st0" d="M410.81,115.17l16.74-80.44c2.52-11.68-.59-13.48-8.3-16.18l.3-1.5c7.56-.75,15.56-2.25,23.41-4.04l-20.3,98.12c-.59,2.7.15,4.49,1.93,4.49,1.48,0,3.85-1.35,9.18-9.29l1.63,1.05c-6.81,13.33-10.81,19.77-17.33,19.77-5.93,0-8.59-5.39-7.26-11.98Z"/>
    <path class="st0" d="M441.92,101.84c0-22.77,18.67-49.58,39.26-49.58,13.04,0,16.89,10.64,21.78,10.64,2.37,0,5.33-2.55,8.74-10.64h2.07l-12.44,59.17c-.59,3,.44,4.19,1.78,4.19,2.07,0,4.45-2.25,9.33-9.29l1.63,1.05c-6.52,13.63-10.96,19.77-17.04,19.77-5.48,0-7.7-4.79-7.7-8.54,0-4.04,2.67-11.08,5.63-20.22l-1.33-.45c-11.11,22.62-21.18,29.21-31.26,29.21-10.81,0-20.44-8.99-20.44-25.32ZM497.48,79.52l1.04-5.54c-5.33-13.63-12.59-16.33-18.37-16.33-17.93,0-26.07,27.11-26.07,43.29,0,12.28,4.59,18.57,11.56,18.57,7.55,0,18.37-7.49,31.85-40Z"/>
    <path class="st0" d="M524.29,118.02c0-.45.15-2.25.59-4.19l8.15-39.85c2.37-11.53-.3-14.98-8.15-16.18l.3-1.5c7.85-.6,15.85-1.95,23.41-4.34l-12.15,59.17c-.45,2.1-.45,4.49,1.93,4.49,1.33,0,3.41-1.2,9.18-9.14l1.48.9c-7.26,14.38-10.96,19.77-17.18,19.77-5.04,0-7.56-3.45-7.56-9.14ZM535.99,31.44c0-4.04,3.85-7.79,8-7.79s8,3.75,8,7.79-4,8.09-8,8.09-8-3.9-8-8.09Z"/>
    <path class="st0" d="M556.14,99.15c0-23.52,19.56-46.89,39.41-46.89,9.63,0,17.78,5.54,22.96,14.83l-12.89,8.84-1.19-.9c1.04-10.94-2.81-17.53-10.81-17.53-13.33,0-25.63,17.68-25.63,37,0,15.58,8.15,22.47,18.82,22.47,9.93,0,18.81-5.69,24.89-15.13l1.93,1.05c-5.04,13.48-15.85,24.27-32,24.27s-25.48-11.08-25.48-28.01Z"/>
  </g>
</svg>