<svg id="Layer_1" data-name="Layer 1" xmlns="http://www.w3.org/2000/svg" viewBox="0 0 1000 138.18"><defs><style>.cls-1{fill:#1e2c48;}</style></defs><path class="cls-1" d="M111.92,25v88.2h-8.76L50.24,58.52v54.67H32.73V25h8.63l53,54.67V25Z"/><path class="cls-1" d="M150.58,69.15c0-26.89,18-45.91,46.78-45.91,27.77,0,46.92,18.27,46.92,45.91,0,26.77-18.14,45.79-46.92,45.79C169.59,114.94,150.58,96.8,150.58,69.15Zm75.31,0c0-17.14-11-29.4-28.53-29.4-16.63,0-28.39,11.52-28.39,29.4,0,17,11,29.28,28.39,29.28C214.13,98.43,225.89,86.92,225.89,69.15Z"/><path class="cls-1" d="M282.06,78.41V25H299.7V74.16c0,17,6.38,24,20.39,24s20.52-7,20.52-24V25h17.64V78.41c0,24.14-12.76,36.53-38.16,36.53C295.2,114.94,282.06,102.55,282.06,78.41Z"/><path class="cls-1" d="M452.58,113.19l-17.52-25H416.92v25H399.28V25h35.78c23.27,0,35.65,11.14,35.65,31.53,0,14.13-6.25,23.64-17.63,28.27L474,113.19Zm-.26-56c0-11.13-5.87-16.89-18.64-16.89H416.92V73h15.26C445.94,73,452.32,66.53,452.32,57.14Z"/><path class="cls-1" d="M510.25,25h18v88.2h-18Z"/><path class="cls-1" d="M566.54,106.81l6.64-15.26c9.88,4.75,19.64,7.63,30.15,7.63,9.88,0,15.63-3.51,15.63-10.51s-6.38-9.13-18.64-11.51C580.93,73.28,567.8,67.4,567.8,50c0-16,11-26.77,33.15-26.77,13.38,0,24.52,2.75,33.15,6.88l-7.26,14.76A66.89,66.89,0,0,0,601,39.25c-10,0-15,4.13-15,9.64,0,7,8,9.38,21.51,12.13,17.39,3.5,29.9,9,29.9,26.4,0,18.14-11.38,27.52-33.15,27.52C588.69,114.94,578.68,112.31,566.54,106.81Z"/><path class="cls-1" d="M674.14,25h17.64V66.28h40.28V25h17.51v88.2H732.06V81.54H691.78v31.65H674.14Z"/><path class="cls-1" d="M851.18,113.19H790.93V97.93h42.86V75.28H791.58V60.52h42.21V40.25h-42.5V25h59.89Z"/><path class="cls-1" d="M889.09,25h34.52c27.52,0,43.66,14.39,43.66,43,0,27.77-14.51,45.16-42.91,45.16H889.09Zm35,71.94c15.52,0,25-10.64,25-28.9,0-16.89-8.63-26.77-25.52-26.77H906.35V96.93Z"/></svg>
